<?xml version="1.0" encoding="UTF-8" standalone="no"?><!DOCTYPE svg PUBLIC "-//W3C//DTD SVG 1.1//EN" "http://www.w3.org/Graphics/SVG/1.1/DTD/svg11.dtd"><svg width="100%" height="100%" viewBox="0 0 29259 15226" version="1.1" xmlns="http://www.w3.org/2000/svg" xmlns:xlink="http://www.w3.org/1999/xlink" xml:space="preserve" xmlns:serif="http://www.serif.com/" style="fill-rule:evenodd;clip-rule:evenodd;"><g id="logo"><g id="Ebene-1" serif:id="Ebene 1"><path id="path7649" d="M15948.8,15060.7c-62.696,-47.809 -88.902,-111.9 -68.213,-166.823c26.768,-71.062 109.665,-89.187 407.905,-89.187c205.871,-0 374.31,20.621 374.31,45.825c-0,193.497 -530.925,349.788 -714.002,210.185Zm1033.41,-629.445c-0,-65.974 372.697,-241.154 416.887,-195.952c51.24,52.414 -197.13,244.004 -316.316,244.004c-55.314,-0 -100.571,-21.624 -100.571,-48.052Zm-3566.69,-126.261c-230.352,-113.18 -233.906,-118.483 -92.536,-138.049c166.613,-23.06 709.058,123.291 758.395,204.613c61.267,100.99 -423.467,52.531 -665.859,-66.564Zm372.639,-366.928c-384.415,-51.059 -830.323,-185.252 -1371.4,-412.712c-509.235,-214.074 -498.588,-211.8 -455.451,-97.283c42.834,113.713 -126.381,65.869 -462.214,-130.688c-131.755,-77.113 -395.263,-221.714 -585.576,-321.335c-190.312,-99.622 -451.946,-267.562 -581.41,-373.203c-151.4,-123.54 -272.058,-182.305 -338.159,-164.696c-72.127,19.215 -171.159,-44.305 -332.13,-213.032c-126.148,-132.226 -252.704,-240.411 -281.234,-240.411c-78.959,-0 -443.911,-648.767 -823.672,-1464.22c-450.541,-967.442 -495.833,-1107.98 -600.146,-1862.19c-48.837,-353.103 -122.06,-706.957 -162.718,-786.342c-86.216,-168.338 -103.078,-1184.1 -25.63,-1543.87c26.921,-125.058 77.751,-373.168 112.955,-551.355c35.204,-178.188 106.451,-422.225 158.327,-542.305c51.876,-120.08 149.95,-352.548 217.944,-516.595c67.993,-164.047 268.172,-538.62 444.843,-832.383c613.555,-1020.2 2588.48,-2909.36 3404.61,-3256.74c322.777,-137.389 616.386,-103.559 616.386,71.021c0,50.497 26.374,118.681 58.609,151.519c42.655,43.453 -68.606,168.188 -408.75,458.247c-995.306,848.751 -1302.88,1143.64 -1644.57,1576.78c-696.369,882.717 -1124.17,1724.8 -1393.6,2743.14c-185.812,702.31 -234.44,1966.14 -103.08,2679c270.973,1470.52 984.676,2709.58 2071.83,3596.89c500.055,408.134 1417.41,891.672 1994.04,1051.06c2264.64,625.977 4589.27,-256.601 5862.78,-2225.89c534.049,-825.821 800.268,-1699.8 807.551,-2651.15c3.348,-437.16 50.547,-607.291 116.384,-419.499c13.071,37.284 42.897,49.605 66.281,27.382c68.428,-65.033 -78.51,-919.022 -239.745,-1393.37c-265.681,-781.629 -824.555,-1574.35 -1552.35,-2201.89c-626.108,-539.863 -1405,-929.539 -2169.96,-1085.63c-630.371,-128.623 -1795.84,-86.749 -2320.9,83.388c-645.689,209.227 -1468.37,685.796 -2045.79,1185.1c-136.755,118.255 -198.603,142.663 -246.352,97.224c-139.885,-133.117 405.036,-729.641 1047.41,-1146.6c385.691,-250.348 277.855,-240.659 -129.893,11.671c-377.337,233.51 -1020.58,839.732 -1294.78,1220.25c-105.134,145.9 -308.092,465.523 -451.018,710.272c-142.926,244.748 -259.883,430.902 -259.905,413.675c-0.053,-47.616 271.28,-720.27 315.502,-782.134c21.321,-29.827 106.542,-176.249 189.381,-325.383c140.775,-253.434 142.585,-264.065 27.697,-162.691c-67.606,59.653 -224.306,267.085 -348.221,460.958c-604.339,945.525 -891.106,2186.63 -768.183,3324.63c77.624,718.632 252.068,1305.24 607.625,2043.27c396.924,823.894 393.301,1030.31 -10.59,603.472c-635.103,-671.178 -1185.6,-2330.19 -1183.49,-3566.63c1.065,-623.963 86.249,-996.003 451.26,-1970.89c493.582,-1318.29 839.749,-1870.91 1412.9,-2255.57c202.075,-135.619 541.284,-427.795 753.798,-649.279c246.739,-257.154 512.613,-470.269 735.628,-589.654c417.384,-223.433 1137.81,-444.537 1604.39,-492.396c455.293,-46.702 498.35,-62.808 421.171,-157.543c-71.675,-87.979 -54.351,-102.968 330.942,-286.346c221.325,-105.337 289.936,-114.282 526.299,-68.618c149.489,28.881 445.18,52.51 657.094,52.51c211.913,-0 483.101,35.153 602.641,78.118c119.539,42.965 356.115,91.079 525.725,106.918c218.155,20.374 451.572,100.652 797.781,274.38c269.169,135.069 535.323,245.58 591.455,245.58c56.131,-0 183.255,55.961 282.496,124.358c284.031,195.754 313.526,210.583 313.526,157.63c-0,-115.922 -441.803,-547.129 -753.91,-735.829c-185.564,-112.193 -373.323,-226.546 -417.241,-254.119c-43.919,-27.572 -168.999,-99.333 -277.955,-159.47c-108.958,-60.136 -274.424,-185.34 -367.703,-278.229l-169.599,-168.891l208,26.798c114.401,14.739 375.688,92.815 580.64,173.504c204.951,80.689 466.951,182.828 582.223,226.976c115.271,44.149 306.914,151.978 425.873,239.62c118.959,87.643 286.123,202.108 371.477,254.367c85.353,52.26 243.966,174.329 352.474,271.266c108.507,96.937 220.852,176.249 249.654,176.249c75.577,0 882.435,918.253 1186.94,1350.81c266.12,378.029 531.13,861.015 531.13,967.996c-0,59.556 33.982,137.014 75.515,172.129c104.209,88.104 335.469,770.677 405.463,1196.74c31.849,193.874 110.335,523.324 174.413,732.111c101.468,330.622 115.749,495.093 110.66,1274.42c-9.881,1512.95 -221.698,2543.74 -764.402,3719.89c-280.213,607.284 -574.964,1077.94 -981.697,1567.58c-314.762,378.918 -345.03,404.792 -474.812,405.898c-80.606,0.689 -91.345,-27.206 -62.313,-161.861c38.526,-178.691 -44.21,-214.962 -243.053,-106.553c-204.98,111.755 -110.058,-143.202 158.397,-425.452c349.275,-367.223 528.429,-642.552 818.306,-1257.6c226.966,-481.563 410.884,-1054.3 410.884,-1279.53c-0,-143.777 -52.609,-68.899 -465.187,662.099c-203.942,361.34 -523.245,861.616 -709.563,1111.72c-390.038,523.579 -860.826,1012.53 -889.764,924.089c-10.882,-33.255 111.18,-262.279 271.248,-508.943c336.33,-518.281 622.565,-1080.38 621.103,-1219.71c-0.59,-56.119 -70.427,16.933 -167.018,174.702c-222.425,363.303 -468.309,677.881 -529.854,677.881c-27.571,-0 -13.58,-71.999 31.09,-159.998c207.355,-408.484 23.846,-238.349 -587.742,544.909c-572.965,733.793 -796.482,932.085 -1393.45,1236.19c-938.126,477.902 -1381.9,608.737 -2568.96,757.389c-739.168,92.565 -969.257,103.9 -1277.62,62.941Zm5635.08,-3114.1c206.919,-348.023 421.334,-867.237 465.232,-1126.57c18.044,-106.595 -111.097,110.041 -316.235,530.49c-190.704,390.864 -471.021,878.938 -622.928,1084.61c-409.5,554.434 -413.598,571.01 -43.075,174.237c186.135,-199.321 418.788,-497.564 517.006,-662.762Zm1770.6,-3213.15c0.686,-496.879 -41.605,-795.941 -140.422,-993.05c-56.171,-112.043 -67.86,41.707 -72.149,949.033l-5.121,1082.74l108.54,-298.268c76.11,-209.145 108.723,-430.391 109.15,-740.453l0.002,0Zm-1017.59,306.61c-0,-59.654 -23.956,-108.461 -53.234,-108.461c-29.279,-0 24.147,51.783 24.147,111.437c-0,59.653 -53.426,105.485 -24.147,105.485c29.278,-0 53.234,-48.808 53.234,-108.461Zm-12200.7,-1491.34l-2.555,-162.691l-40.637,162.691c-22.351,89.481 -41.788,211.499 -43.195,271.153c-2.555,108.461 -2.555,108.461 43.195,-0c25.163,-59.654 44.6,-181.672 43.194,-271.153l-0.002,0Zm12435.7,-385.943c-203.703,-613.437 -647.317,-1355.8 -1110.47,-1858.31c-251.525,-272.898 -950.701,-819.77 -1048.08,-819.77c-23.996,-0 256.413,297.449 623.131,660.998c708.071,701.952 989.586,1084.18 1358.96,1845.12c126.141,259.864 237.232,464.447 246.869,454.629c9.638,-9.818 -22.05,-137.02 -70.416,-282.673Zm-5241.69,-3622.55c215.04,-0.38 324.461,57.699 292.788,25.717c-57.555,-58.116 -962.627,11.215 -1023.66,78.416c-21.098,23.228 57.463,26.845 174.578,8.038c117.115,-18.807 367.448,-111.843 556.296,-112.171Zm601.546,40.868c-36.598,-15.044 -96.487,-15.044 -133.085,-0c-36.599,15.044 -6.654,27.352 66.542,27.352c73.197,0 103.142,-12.308 66.543,-27.352Zm3021.04,-1591c0,-29.827 -25.369,-54.231 -56.376,-54.231c-31.007,0 14.198,13.882 32.294,43.708c18.095,29.827 -12.304,64.753 0.606,64.753c12.912,0 23.476,-24.403 23.476,-54.23l0,-0Zm-372.639,-216.922c-43.918,-28.914 -103.806,-52.569 -133.085,-52.569c-29.279,-0 -17.301,23.655 26.617,52.569c43.918,28.913 103.807,52.569 133.085,52.569c29.279,0 17.301,-23.656 -26.617,-52.569Zm-289.654,-137.301c-56.833,-43.791 -128.699,-78.756 -159.702,-77.699c-31.002,1.057 3.519,36.798 76.717,79.424c172.439,100.419 214.419,99.547 82.985,-1.725Zm-6870.34,13202.4c-158.487,-111.369 -137.461,-114.199 173.011,-23.287c126.855,37.145 165.772,136.471 53.234,135.867c-36.598,-0.217 -138.408,-50.857 -226.245,-112.58Zm2647.3,-908.609c-37.204,-24.055 142.461,-34.467 399.256,-23.137c651.283,28.736 714.252,54.955 147.497,61.414c-263.509,3.005 -509.547,-14.221 -546.753,-38.277Zm1661.83,-142.829c320.504,-73.647 590.654,-125.837 600.334,-115.976c34.989,35.644 -627.687,201.067 -902.072,225.184c-195.861,17.215 -104.439,-15.873 301.738,-109.208Zm-2926.54,-970.455c-757.26,-372.439 -1400.23,-994.361 -1781.6,-1723.29c-189.676,-362.529 -187.118,-490.09 3.524,-175.848c435.711,718.189 1230.73,1490.1 1920.36,1864.55c294.26,159.775 365.646,217.119 270.281,217.119c-22.785,-0 -208.439,-82.14 -412.564,-182.534l0.002,-0Z" style="fill:#00048c;fill-rule:nonzero;stroke:#00048c;stroke-width:53.73px;"/></g><path id="path3006-4" d="M14029.2,11133.3c-682.375,-129.671 -1331.45,-482.798 -1850.08,-1006.54c-500.908,-505.839 -705.67,-856.354 -865.634,-1481.81c-312.26,-1220.92 47.057,-2610.8 893.882,-3457.62c458.932,-458.932 1113.75,-845.172 1722.94,-1016.25c411.916,-115.684 602.932,-132.464 1510.22,-132.664c1118.54,-0.23 1554.75,68.578 2144.26,338.314l297.753,136.24l33.526,366.213c71.739,783.635 67.978,939.131 -23.148,957.112c-54.419,10.738 -145.507,-96.195 -245.338,-288.015c-257.208,-494.211 -634.071,-879.96 -1068.62,-1093.82c-372.447,-183.297 -410.63,-189.967 -1079.63,-188.613c-866.137,1.754 -1350.68,135.434 -1866.04,514.822c-823.232,606.028 -1264.5,1465.36 -1320.17,2570.9c-38.968,773.853 36.882,1176.29 337.148,1788.8c185.1,377.586 341.306,591.222 678.663,928.179c241.021,240.736 555.069,505.542 697.885,588.457c710.552,412.532 1806.82,438.096 2558.1,59.653c433.746,-218.49 516.536,-459.892 491.25,-1432.4c-24.208,-931.009 -47.762,-971.574 -616.379,-1061.51c-211.48,-33.449 -462.41,-67.874 -557.62,-76.502c-108.435,-9.825 -173.11,-48.022 -173.11,-102.24c0.001,-74.505 224.392,-88.693 1611.87,-101.912c1076.25,-10.254 1632.16,4.928 1672.91,45.68c99.644,99.645 -77.74,169.779 -431.872,170.755c-540.114,1.489 -540.083,1.425 -574.467,1193.42c-21.975,761.87 -51.425,1062.15 -113.428,1156.58c-106.189,161.716 -653.71,410.136 -1212.91,550.319c-586.118,146.931 -2053.74,188.14 -2651.94,74.465Zm-13942.3,-96.13c-59.726,-96.639 33.139,-150.645 374.528,-217.809c617.018,-121.391 597.335,-69.998 600.362,-1567.56c1.437,-711.898 -2.071,-2027.91 -7.8,-2924.47c-12.039,-1883.85 6.152,-1821.72 -553.853,-1891.68c-262.844,-32.841 -322.112,-60.257 -322.112,-149.003c-0,-101.637 62.335,-109.584 952.103,-121.38c1750.16,-23.203 1731.1,-23.952 1731.1,67.963c-0,56.492 -111.132,106.453 -337.791,151.858c-610.207,122.237 -565.235,-135.415 -558.745,3201.18c4.766,2450.73 18.937,2927.17 90.296,3036.08c77,117.517 192.577,164.105 680.507,274.31c91.204,20.599 152.526,67.547 139.457,106.767c-27.84,83.544 -2737.01,116.343 -2788.05,33.755Zm4785.05,-7.032c-75.474,-121.989 285.923,-273.124 654.643,-273.768c415.706,-0.727 294.775,-174.801 -674.607,-971.065c-333.236,-273.725 -870.231,-723.585 -1193.32,-999.689c-323.091,-276.105 -783.995,-649.949 -1024.23,-830.766c-240.238,-180.817 -436.795,-360.664 -436.795,-399.66c0,-38.996 214.223,-213.795 476.051,-388.443c542.836,-362.087 2287.34,-1763.4 2740.9,-2201.7c450.354,-435.194 425.864,-495.148 -245.238,-600.351c-195.561,-30.657 -288.517,-72.684 -288.517,-130.445c0,-73.193 179.138,-82.331 1269.47,-64.757c698.209,11.254 1294.14,43.712 1324.29,72.129c92.512,87.195 -39.483,162.824 -400.735,229.604c-356.101,65.829 -971.781,348.083 -1414.03,648.252c-466.721,316.778 -2481.24,2012.18 -2481.24,2088.2c-0,79.341 648.28,652.99 1904.21,1684.99c428.446,352.057 1007.18,846.831 1286.07,1099.5c563.45,510.466 910.503,722.979 1374.32,841.542c179.952,46.001 318.422,115.403 328.137,164.465c14.485,73.155 -203.48,84.216 -1577.89,80.064c-877.085,-2.648 -1606.75,-24.292 -1621.48,-48.095Zm17406.5,-54.167c-0.054,-72.512 70.059,-107.081 274.019,-135.104c464.402,-63.808 693.128,-139.441 738.282,-244.129c77.51,-179.704 105,-5494.75 29.855,-5772.26c-76.003,-280.672 -157.413,-333.396 -671.44,-434.85c-367.119,-72.459 -460.382,-202.447 -197.678,-275.521c229.401,-63.811 3048.36,-56.884 3462.19,8.507c522.737,82.599 708.985,150.579 960.778,350.679c656.321,521.577 827.246,1429.58 403.142,2141.61c-131.82,221.309 -290.323,377.043 -583.305,573.112c-221.266,148.074 -411.041,295.442 -421.721,327.483c-24.616,73.849 131.113,379.586 636.589,1249.79c850.067,1463.44 1096.13,1749.14 1642.33,1906.82c427.048,123.289 507.01,164.82 507.01,263.337c-0,112.943 -1827.77,149.481 -1919.85,38.378c-62.222,-75.073 -395.703,-661.856 -1262.35,-2221.18c-268.446,-483.008 -556.49,-932.005 -640.098,-997.771c-125.249,-98.52 -218.689,-116.613 -530.691,-102.759l-378.677,16.816l-15.434,1391.66c-18.084,1630.62 -32.603,1585.67 564.967,1749.14c221.183,60.506 380.511,136.801 390.361,186.926c14.305,72.794 -194.448,84.136 -1485.79,80.726c-1370.05,-3.619 -1502.43,-12.554 -1502.5,-101.413Zm3289.01,-3715.3c734.92,-217.771 1111.1,-1035.59 835.565,-1816.53c-136.625,-387.237 -341.542,-608.346 -750.28,-809.568c-325.131,-160.061 -439.79,-185.801 -850.837,-191.01l-475.067,-6.02l-15.468,1406.56c-11.628,1057.3 2.389,1428.08 56.446,1493.21c88.988,107.223 713.869,67.301 1199.64,-76.643Z" style="fill:#f50002;fill-rule:nonzero;"/></g></svg>